# xmcd
#
# Track frame offsets:
# 150
# 16587
# 37651
# 58833
# 74830
# 90124
# 104960
# 118317
# 134365
# 149155
#
# Disc length: 2306 seconds
#
# Revision: 1
# Processed by: cddbd v1.5.2PL0 Copyright (c) Steve Scherf et al.
# Submitted via: CedeCatalogueitor 2.6.0.6 http://personales.ya.com/cdcatalogueitor
#
DISCID=9409000a
DTITLE=Nistal  - Y Vosotros Sin Saberlo
DYEAR=1900
DGENRE=
TTITLE0=No Te Quiero Ver
TTITLE1=Miles De momentos
TTITLE2=Y Vosotros Sin Saberlo
TTITLE3=Golpes (Algo Más)
TTITLE4=Brieana
TTITLE5=No Tengo Miedo Al Fracaso 
TTITLE6=Muñeca De Porcelana
TTITLE7=Odio Tocar En Directo
TTITLE8=Ojalá Tú
TTITLE9=¿Quien Soy? (Do-Dá)
EXTD=
EXTT0=
EXTT1=
EXTT2=
EXTT3=
EXTT4=
EXTT5=
EXTT6=
EXTT7=
EXTT8=
EXTT9=
PLAYORDER=
